<?xml version="1.0" encoding="iso-8859-1"?>
<!-- Generator: Adobe Illustrator 19.0.0, SVG Export Plug-In . SVG Version: 6.00 Build 0)  -->
<svg xmlns="http://www.w3.org/2000/svg" xmlns:xlink="http://www.w3.org/1999/xlink" version="1.1" id="Capa_1" x="0px" y="0px" viewBox="0 0 512.001 512.001" style="enable-background:new 0 0 512.001 512.001;" xml:space="preserve" width="512px" height="512px">
<g>
	<g>
		<path d="M470.792,120.926c-2.834-4.739-8.974-6.284-13.715-3.451c-4.74,2.834-6.285,8.974-3.451,13.714    c20.886,34.932,25.27,53.751,25.27,63.387c0,45.076-36.672,81.748-81.748,81.748s-81.749-36.672-81.749-81.748    c0-35.037,53.367-107.876,81.724-142.736c3.139,3.875,7.09,8.827,11.536,14.566c3.382,4.366,9.666,5.162,14.029,1.781    c4.366-3.383,5.163-9.664,1.781-14.03c-11.36-14.664-19.372-24.087-19.708-24.481c-1.899-2.231-4.682-3.517-7.613-3.517    c-2.93,0-5.714,1.286-7.613,3.517c-0.95,1.116-23.532,27.707-46.494,61.014c-31.613,45.854-47.642,80.806-47.642,103.886    c0,56.104,45.645,101.748,101.749,101.748s101.748-45.644,101.748-101.748C498.896,176.647,489.703,152.556,470.792,120.926z" fill="#FFFFFF"/>
	</g>
</g>
<g>
	<g>
		<path d="M450.17,90.59c-0.12-0.63-0.32-1.26-0.57-1.87c-0.25-0.6-0.55-1.18-0.91-1.72c-0.37-0.55-0.79-1.06-1.25-1.52    c-0.46-0.46-0.97-0.88-1.52-1.25c-0.54-0.36-1.12-0.67-1.72-0.92c-0.61-0.25-1.24-0.44-1.881-0.57c-1.289-0.26-2.609-0.26-3.899,0    c-0.64,0.13-1.27,0.32-1.87,0.57c-0.61,0.25-1.19,0.56-1.73,0.92c-0.55,0.37-1.06,0.79-1.52,1.25c-0.46,0.46-0.88,0.97-1.24,1.52    c-0.359,0.54-0.67,1.12-0.92,1.72c-0.25,0.61-0.45,1.24-0.57,1.87c-0.13,0.65-0.199,1.3-0.199,1.96c0,0.65,0.069,1.31,0.199,1.95    c0.12,0.64,0.32,1.27,0.57,1.87c0.25,0.61,0.561,1.19,0.92,1.73c0.36,0.55,0.78,1.06,1.24,1.52c0.46,0.46,0.97,0.88,1.52,1.24    c0.54,0.36,1.12,0.67,1.73,0.92c0.6,0.25,1.23,0.44,1.87,0.57c0.639,0.13,1.3,0.2,1.95,0.2c0.649,0,1.309-0.07,1.949-0.2    c0.641-0.13,1.271-0.32,1.881-0.57c0.6-0.25,1.18-0.56,1.72-0.92c0.55-0.36,1.06-0.78,1.52-1.24c0.46-0.46,0.88-0.97,1.25-1.52    c0.36-0.54,0.66-1.12,0.91-1.73c0.25-0.6,0.45-1.23,0.57-1.87c0.13-0.64,0.2-1.3,0.2-1.95    C450.37,91.891,450.3,91.241,450.17,90.59z" fill="#FFFFFF"/>
	</g>
</g>
<g>
	<g>
		<path d="M418.686,113.924c-4.226-6.143-8.764-12.509-13.489-18.921c-1.885-2.559-4.874-4.07-8.053-4.069    c-3.178,0-6.167,1.511-8.051,4.071c-4.595,6.241-9.008,12.428-13.12,18.39c-38.616,56.014-40.572,77.452-40.572,81.181    c0,34.048,27.699,61.747,61.747,61.747c34.048,0,61.747-27.7,61.747-61.747C458.895,190.868,456.957,169.552,418.686,113.924z     M397.148,236.324c-22.952,0-41.638-18.616-41.747-41.543c0.138-1.293,2.708-20.235,37.037-70.032    c1.528-2.216,3.1-4.465,4.709-6.737c1.731,2.444,3.421,4.865,5.062,7.249c33.997,49.416,36.548,68.231,36.686,69.52    C438.786,217.707,420.1,236.324,397.148,236.324z" fill="#FFFFFF"/>
	</g>
</g>
<g>
	<g>
		<path d="M117.81,277.42c-0.13-0.63-0.32-1.26-0.57-1.87c-0.25-0.6-0.56-1.18-0.92-1.72c-0.37-0.55-0.79-1.06-1.25-1.52    c-0.46-0.46-0.97-0.88-1.52-1.25c-0.54-0.361-1.12-0.671-1.72-0.921c-0.61-0.25-1.23-0.44-1.87-0.57c-1.29-0.26-2.62-0.26-3.91,0    c-0.64,0.13-1.27,0.32-1.87,0.57c-0.6,0.25-1.19,0.561-1.73,0.921c-0.55,0.37-1.06,0.79-1.52,1.25c-0.46,0.46-0.88,0.97-1.24,1.52    c-0.36,0.54-0.67,1.12-0.92,1.72c-0.25,0.61-0.44,1.24-0.57,1.87c-0.13,0.65-0.2,1.31-0.2,1.96s0.07,1.31,0.2,1.95    c0.13,0.64,0.32,1.27,0.57,1.87c0.25,0.61,0.56,1.19,0.92,1.73c0.36,0.55,0.78,1.06,1.24,1.52c0.46,0.46,0.97,0.88,1.52,1.24    c0.54,0.36,1.12,0.67,1.73,0.92c0.6,0.25,1.23,0.45,1.87,0.57c0.64,0.13,1.3,0.2,1.95,0.2c0.659,0,1.31-0.07,1.96-0.2    c0.64-0.12,1.26-0.32,1.87-0.57c0.6-0.25,1.18-0.56,1.72-0.92c0.55-0.36,1.06-0.78,1.52-1.24c0.46-0.46,0.88-0.97,1.25-1.52    c0.36-0.54,0.67-1.12,0.92-1.73c0.25-0.6,0.44-1.23,0.57-1.87s0.19-1.3,0.19-1.95C118,278.73,117.94,278.07,117.81,277.42z" fill="#FFFFFF"/>
	</g>
</g>
<g>
	<g>
		<path d="M490.356,390.289c0.038-0.479,0.066-0.958,0.082-1.439h-0.006c0.01-0.371,0.025-0.968,0.025-1.115    c0-17.764-14.452-32.216-32.216-32.216h-34.786c0.008-0.32,0.016-0.665,0.016-0.771c0-17.764-14.452-32.216-32.216-32.216h-85.91    l-27.383-53.312c-8.565-20.128-28.177-33.11-50.082-33.11H10c-5.523,0-10,4.477-10,10v130.558c0,4.573,3.103,8.564,7.535,9.691    l134.967,34.335c0.814,0.207,1.642,0.309,2.465,0.309c2.2,0,4.365-0.727,6.138-2.105c2.437-1.894,3.862-4.808,3.862-7.895v-55.595    h7.988l25.262,44.242c6.776,14.909,18.335,27.536,32.595,35.591l61.599,34.797c18.307,10.341,39.08,15.803,60.097,15.803    c0.112,0,0.227,0,0.339,0c35.19-0.098,98.203-0.262,124.838-0.262c7.108,0,13.894-3.01,19.108-8.476    c6.155-6.452,9.572-15.774,9.141-24.935c-0.053-1.136-0.167-2.255-0.336-3.356c9.558-5.374,15.989-15.447,16.384-26.974    c0.004-0.114,0.007-0.164,0.007-0.279c0.004-0.251,0.012-0.726,0.012-0.836C511.999,406.66,502.942,394.674,490.356,390.289z     M134.967,398.142L134.967,398.142l-16.964-4.316v-77.5c0-5.523-4.477-10-10-10s-10,4.477-10,10v72.412L20,368.895V256.111    h114.967V398.142z M458.242,375.52c6.735,0,12.216,5.48,12.216,12.156l-0.01,0.541c-0.004,0.097-0.009,0.193-0.015,0.29H359.086    l-13.843-12.987H458.242z M391.256,342.533c6.735,0,12.216,5.48,12.216,12.156l-0.01,0.543c-0.004,0.096-0.009,0.192-0.015,0.288    h-79.524l-3.154-2.959l-5.15-10.028H391.256z M472.32,463.298c-1.443,1.513-3.004,2.281-4.637,2.281    c-26.659,0-89.693,0.165-124.895,0.262c-0.095,0-0.188,0-0.282,0c-17.575,0-34.95-4.568-50.26-13.217l-61.599-34.797    c-10.708-6.049-19.367-15.565-24.379-26.797c-0.135-0.301-0.284-0.596-0.448-0.883l-28.377-49.698    c-1.78-3.117-5.094-5.041-8.684-5.041h-13.793v-79.297h72.915c13.945,0,26.42,8.317,31.783,21.188    c0.102,0.246,0.214,0.487,0.335,0.723l17.376,33.831l-1.973-1.852c-4.026-3.778-10.356-3.577-14.135,0.451    c-3.778,4.028-3.577,10.356,0.451,14.135l90.504,84.904c5.233,5.228,5.717,13.429,1.15,19.211    c-0.333,0.369-1.028,1.139-1.348,1.488c-2.154,2.077-4.847,3.415-7.8,3.876c-4.597,0.715-9.124-0.739-12.427-3.993    c-0.069-0.068-0.14-0.136-0.211-0.202l-50.102-46.544c-4.046-3.759-10.374-3.527-14.133,0.52    c-3.759,4.046-3.526,10.374,0.52,14.132l50.004,46.454c6.471,6.314,15.211,9.803,24.155,9.803c1.756,0,3.519-0.135,5.274-0.408    c7.198-1.122,13.743-4.428,18.919-9.55c0.393-0.387,2.28-2.487,2.446-2.686c0.024-0.029,0.048-0.059,0.072-0.088    c0.003-0.003,0.005-0.007,0.008-0.01h94.373c6.773,0,12.528,5.209,12.829,11.614C476.128,456.802,474.702,460.802,472.32,463.298z     M491.99,421.213c-0.16,4.074-2.308,7.663-5.547,9.764c-5.956-5.871-14.211-9.484-23.318-9.484h-86.643    c0.225-4.389-0.395-8.801-1.847-12.987h105.149c6.735,0,12.215,5.48,12.215,12.156L491.99,421.213z" fill="#FFFFFF"/>
	</g>
</g>
<g>
</g>
<g>
</g>
<g>
</g>
<g>
</g>
<g>
</g>
<g>
</g>
<g>
</g>
<g>
</g>
<g>
</g>
<g>
</g>
<g>
</g>
<g>
</g>
<g>
</g>
<g>
</g>
<g>
</g>
</svg>
