<?xml version="1.0" encoding="iso-8859-1"?>
<!-- Generator: Adobe Illustrator 19.0.0, SVG Export Plug-In . SVG Version: 6.00 Build 0)  -->
<svg version="1.1" id="Capa_1" xmlns="http://www.w3.org/2000/svg" xmlns:xlink="http://www.w3.org/1999/xlink" x="0px" y="0px"
	 viewBox="0 0 512 512" style="enable-background:new 0 0 512 512;" xml:space="preserve">
<path style="fill:#ED589D;" d="M436,190.71c0,95.64-62.15,141.38-180,311.29C137.92,331.75,76,286.28,76,190.71
	C76,91.3,156.59,10,256,10S436,91.3,436,190.71z"/>
<path style="fill:#FFC342;" d="M255.5,70c66.27,0,120,53.73,120,120s-53.73,120-120,120s-120-53.73-120-120S189.23,70,255.5,70z"/>
<path d="M247.783,507.699c1.869,2.693,4.939,4.301,8.217,4.301c3.278,0,6.349-1.606,8.217-4.301
	c32.446-46.778,60.129-83.416,84.553-115.741C411.465,308.984,446,263.278,446,190.71C446,85.552,360.767,0,256,0
	S66,85.552,66,190.71c0,72.511,34.494,118.173,97.113,201.066C187.559,424.137,215.266,460.815,247.783,507.699z M256,20
	c93.738,0,170,76.58,170,170.71c0,65.862-31.143,107.078-93.187,189.191c-22.456,29.72-47.655,63.07-76.813,104.621
	c-29.223-41.648-54.45-75.043-76.93-104.802C117.104,297.69,86,256.516,86,190.71C86,96.58,162.262,20,256,20z"/>
<path d="M385.5,190c0-71.683-58.318-130-130-130s-130,58.317-130,130s58.318,130,130,130S385.5,261.683,385.5,190z M145.5,190
	c0-60.654,49.346-110,110-110s110,49.346,110,110s-49.346,110-110,110S145.5,250.654,145.5,190z"/>
<path d="M266,270.71v-11.266c17.233-4.452,30-20.13,30-38.734c0-20.164-18.766-30.084-35.323-38.835
	C245.771,173.995,236,168.266,236,160.71c0-11.028,8.972-20,20-20c11.028,0,20,8.972,20,20c0,5.522,4.477,10,10,10s10-4.478,10-10
	c0-18.604-12.767-34.282-30-38.734V110.71c0-5.522-4.477-10-10-10s-10,4.478-10,10v11.266c-17.233,4.452-30,20.13-30,38.734
	c0,20.172,18.77,30.093,35.331,38.847C266.232,207.434,276,213.161,276,220.71c0,11.028-8.972,20-20,20s-20-8.972-20-20
	c0-5.522-4.477-10-10-10s-10,4.478-10,10c0,18.604,12.767,34.282,30,38.734v11.266c0,5.522,4.477,10,10,10
	C261.523,280.71,266,276.232,266,270.71z"/>
<g>
</g>
<g>
</g>
<g>
</g>
<g>
</g>
<g>
</g>
<g>
</g>
<g>
</g>
<g>
</g>
<g>
</g>
<g>
</g>
<g>
</g>
<g>
</g>
<g>
</g>
<g>
</g>
<g>
</g>
</svg>
